<svg viewBox="0 0 1200 700" xmlns="http://www.w3.org/2000/svg">
    <!-- 🎨 YUNA COMIC MANGA STYLE: ITZY CEO Agents 协调架构 - 真正漫画风格 -->
    
    <defs>
        <!-- 漫画速度线滤镜 -->
        <filter id="speedLines" x="-10%" y="-10%" width="120%" height="120%">
            <feTurbulence type="turbulence" baseFrequency="0.05" numOctaves="1" result="noise"/>
            <feDisplacementMap in="SourceGraphic" in2="noise" scale="2"/>
        </filter>
        
        <!-- 柔和阴影 -->
        <filter id="softShadow" x="-20%" y="-20%" width="140%" height="140%">
            <feDropShadow dx="4" dy="4" stdDeviation="3" flood-opacity="0.2"/>
        </filter>
        
        <!-- 漫画爆炸框渐变 -->
        <linearGradient id="burstGrad" x1="0%" y1="0%" x2="100%" y2="100%">
            <stop offset="0%" style="stop-color:#FFF"/>
            <stop offset="100%" style="stop-color:#FFE4E1"/>
        </linearGradient>
        
        <!-- 便利贴渐变 -->
        <linearGradient id="stickyYellow" x1="0%" y1="0%" x2="100%" y2="100%">
            <stop offset="0%" style="stop-color:#FFF9C4"/>
            <stop offset="100%" style="stop-color:#FFE082"/>
        </linearGradient>
        <linearGradient id="stickyPink" x1="0%" y1="0%" x2="100%" y2="100%">
            <stop offset="0%" style="stop-color:#FCE4EC"/>
            <stop offset="100%" style="stop-color:#F8BBD9"/>
        </linearGradient>
        <linearGradient id="stickyGreen" x1="0%" y1="0%" x2="100%" y2="100%">
            <stop offset="0%" style="stop-color:#E8F5E9"/>
            <stop offset="100%" style="stop-color:#C8E6C9"/>
        </linearGradient>
        <linearGradient id="stickyPurple" x1="0%" y1="0%" x2="100%" y2="100%">
            <stop offset="0%" style="stop-color:#F3E5F5"/>
            <stop offset="100%" style="stop-color:#E1BEE7"/>
        </linearGradient>
        <linearGradient id="stickyOrange" x1="0%" y1="0%" x2="100%" y2="100%">
            <stop offset="0%" style="stop-color:#FFF3E0"/>
            <stop offset="100%" style="stop-color:#FFE0B2"/>
        </linearGradient>
        <linearGradient id="stickyBlue" x1="0%" y1="0%" x2="100%" y2="100%">
            <stop offset="0%" style="stop-color:#E3F2FD"/>
            <stop offset="100%" style="stop-color:#BBDEFB"/>
        </linearGradient>
        
        <!-- 动画 -->
        <style>
            @keyframes wiggle { 0%,100% { transform: rotate(0deg); } 25% { transform: rotate(-2deg); } 75% { transform: rotate(2deg); } }
            @keyframes bounce { 0%,100% { transform: translateY(0); } 50% { transform: translateY(-5px); } }
            @keyframes shake { 0%,100% { transform: translateX(0); } 10%,30%,50%,70%,90% { transform: translateX(-2px); } 20%,40%,60%,80% { transform: translateX(2px); } }
            @keyframes flash { 0%,50%,100% { opacity: 1; } 25%,75% { opacity: 0.5; } }
            @keyframes float { 0%,100% { transform: translateY(0) rotate(0deg); } 50% { transform: translateY(-8px) rotate(3deg); } }
            .comic-wiggle { animation: wiggle 2s ease-in-out infinite; }
            .comic-bounce { animation: bounce 1.5s ease-in-out infinite; }
            .comic-shake { animation: shake 0.5s ease-in-out infinite; }
            .comic-flash { animation: flash 1s ease-in-out infinite; }
            .comic-float { animation: float 3s ease-in-out infinite; }
        </style>
    </defs>
    
    <!-- 漫画纸张背景 -->
    <rect width="100%" height="100%" fill="#FFF5EE"/>
    
    <!-- 网点纸效果 (漫画印刷质感) -->
    <g opacity="0.08">
        <pattern id="dotPattern" width="8" height="8" patternUnits="userSpaceOnUse">
            <circle cx="4" cy="4" r="1.5" fill="#333"/>
        </pattern>
        <rect width="100%" height="100%" fill="url(#dotPattern)"/>
    </g>
    
    <!-- ===== 漫画标题区 ===== -->
    <g transform="translate(50, 30)">
        <!-- 标题框 -->
        <rect x="0" y="0" width="500" height="60" rx="5" fill="#FF6B9D" opacity="0.15" stroke="#FF6B9D" stroke-width="3"/>
        <!-- Yuna 创意对白 -->
        <text x="250" y="40" text-anchor="middle" fill="#FF6B9D" font-size="24" font-weight="bold" font-style="italic">
            "咦？這架構比我畫的流程圖還複雜！✨"
        </text>
        <!-- Yuna 小头像 -->
        <g transform="translate(480, 10)">
            <circle r="18" fill="#FCE4EC" stroke="#FF6B8B" stroke-width="2"/>
            <text y="5" text-anchor="middle" fill="#FF6B8B" font-size="12">💗</text>
        </g>
    </g>
    
    <!-- ===== 分镜框 1: LEADER ===== -->
    <g transform="translate(80, 100)" class="comic-float">
        <!-- 漫画框 -->
        <rect x="-10" y="-10" width="220" height="180" rx="8" fill="#FFF" stroke="#333" stroke-width="4"/>
        <!-- 角色便利贴 -->
        <rect x="0" y="0" width="200" height="140" rx="6" fill="url(#stickyPink)" filter="url(#softShadow)"/>
        <polygon points="200,0 200,20 180,0" fill="#F8BBD9"/>
        
        <!-- Q版人物 -->
        <g transform="translate(100, 50)">
            <circle r="35" fill="#FFB6C1" stroke="#333" stroke-width="3"/>
            <!-- 大眼睛 -->
            <ellipse cx="-12" cy="-8" rx="10" ry="12" fill="#FFF"/>
            <ellipse cx="12" cy="-8" rx="10" ry="12" fill="#FFF"/>
            <circle cx="-12" cy="-8" r="6" fill="#333"/>
            <circle cx="12" cy="-8" r="6" fill="#333"/>
            <circle cx="-14" cy="-10" r="2" fill="#FFF"/>
            <circle cx="10" cy="-10" r="2" fill="#FFF"/>
            <!-- 嘴巴 (自信微笑) -->
            <path d="M -15 10 Q 0 20 15 10" stroke="#333" stroke-width="2" fill="none"/>
            <!-- 头发 -->
            <ellipse cy="-40" rx="30" ry="12" fill="#FF6B9D"/>
            <!-- 皇冠 -->
            <polygon points="-15,-52 0,-65 15,-52" fill="#FFE082" stroke="#333" stroke-width="1"/>
        </g>
        
        <!-- 标签 -->
        <text x="100" y="115" text-anchor="middle" fill="#FF6B9D" font-size="20" font-weight="bold">👑 LEADER</text>
        
        <!-- 创意对白框 (漫画爆炸框) -->
        <g transform="translate(150, -60)">
            <path d="M -50,-35 L -45,-45 L -35,-35 L -25,-50 L -15,-35 L 0,-40 L 15,-35 L 25,-50 L 35,-35 L 45,-45 L 50,-35 L 50,15 Q 50,35 30,35 L -30,35 Q -50,35 -50,15 Z" 
                  fill="url(#burstGrad)" stroke="#333" stroke-width="2"/>
            <text y="5" text-anchor="middle" fill="#333" font-size="11" font-weight="bold">
                "大家聽好了！
            </text>
            <text y="18" text-anchor="middle" fill="#333" font-size="11" font-weight="bold">
                資源我來分配！" 
            </text>
        </g>
        
        <!-- 动作文字 -->
        <text x="180" y="165" fill="#FF6B9D" font-size="14" font-weight="bold" class="comic-shake">⚡ 协调!</text>
    </g>
    
    <!-- ===== 分镜框 2: YEJI ===== -->
    <g transform="translate(350, 120)" class="comic-bounce">
        <rect x="-10" y="-10" width="200" height="160" rx="8" fill="#FFF" stroke="#333" stroke-width="4"/>
        <rect x="0" y="0" width="180" height="120" rx="6" fill="url(#stickyGreen)" filter="url(#softShadow)"/>
        <polygon points="180,0 180,15 165,0" fill="#C8E6C9"/>
        
        <!-- Q版工程师 -->
        <g transform="translate(90, 45)">
            <circle r="30" fill="#B2DFDB" stroke="#333" stroke-width="3"/>
            <!-- 认真表情 -->
            <ellipse cx="-8" cy="-5" rx="8" ry="10" fill="#FFF"/>
            <ellipse cx="8" cy="-5" rx="8" ry="10" fill="#FFF"/>
            <circle cx="-8" cy="-5" r="4" fill="#333"/>
            <circle cx="8" cy="-5" r="4" fill="#333"/>
            <line x1="-10" y1="12" x2="10" y2="12" stroke="#333" stroke-width="2"/>
            <!-- 工程帽 -->
            <rect x="-25" y="-32" width="50" height="15" rx="3" fill="#4ECDC4" stroke="#333" stroke-width="2"/>
            <text x="0" y="-25" text-anchor="middle" fill="#FFF" font-size="8">👷</text>
        </g>
        
        <text x="90" y="105" text-anchor="middle" fill="#4ECDC4" font-size="18" font-weight="bold">🧢 YEJI</text>
        
        <!-- 对白框 -->
        <g transform="translate(140, -50)">
            <ellipse rx="45" ry="28" fill="#FFF" stroke="#333" stroke-width="2"/>
            <polygon points="-5,28 5,38 15,28" fill="#FFF" stroke="#333" stroke-width="2"/>
            <text y="-5" text-anchor="middle" fill="#333" font-size="10" font-weight="bold">"橋樑設計</text>
            <text y="8" text-anchor="middle" fill="#333" font-size="10" font-weight="bold">這次我能搞定!"</text>
        </g>
        
        <!-- 速度线 -->
        <g stroke="#4ECDC4" stroke-width="1" opacity="0.5">
            <line x1="180" y1="50" x2="220" y2="50"/>
            <line x1="180" y1="60" x2="215" y2="60"/>
            <line x1="180" y1="70" x2="220" y2="70"/>
        </g>
    </g>
    
    <!-- ===== 分镜框 3: LIA ===== -->
    <g transform="translate(620, 120)" class="comic-wiggle">
        <rect x="-10" y="-10" width="200" height="160" rx="8" fill="#FFF" stroke="#333" stroke-width="4"/>
        <rect x="0" y="0" width="180" height="120" rx="6" fill="url(#stickyPurple)" filter="url(#softShadow)"/>
        <polygon points="180,0 180,15 165,0" fill="#E1BEE7"/>
        
        <!-- Q版数据分析师 -->
        <g transform="translate(90, 45)">
            <circle r="30" fill="#E1BEE7" stroke="#333" stroke-width="3"/>
            <!-- 温柔表情 -->
            <ellipse cx="-8" cy="-5" rx="7" ry="9" fill="#FFF"/>
            <ellipse cx="8" cy="-5" rx="7" ry="9" fill="#FFF"/>
            <circle cx="-8" cy="-5" r="4" fill="#333"/>
            <circle cx="8" cy="-5" r="4" fill="#333"/>
            <!-- 微笑 -->
            <path d="M -8 12 Q 0 18 8 12" stroke="#333" stroke-width="2" fill="none"/>
            <!-- 眼镜 -->
            <rect x="-18" y="-12" width="14" height="10" rx="2" fill="none" stroke="#9D65FF" stroke-width="2"/>
            <rect x="4" y="-12" width="14" height="10" rx="2" fill="none" stroke="#9D65FF" stroke-width="2"/>
            <line x1="-4" y1="-7" x2="4" y2="-7" stroke="#9D65FF" stroke-width="2"/>
        </g>
        
        <text x="90" y="105" text-anchor="middle" fill="#9D65FF" font-size="18" font-weight="bold">💜 LIA</text>
        
        <!-- 对白框 -->
        <g transform="translate(140, -50)">
            <ellipse rx="48" ry="28" fill="#FFF" stroke="#333" stroke-width="2"/>
            <polygon points="-5,28 5,38 15,28" fill="#FFF" stroke="#333" stroke-width="2"/>
            <text y="-5" text-anchor="middle" fill="#333" font-size="10" font-weight="bold">"數據架構</text>
            <text y="8" text-anchor="middle" fill="#333" font-size="10" font-weight="bold">交給我沒問題~"</text>
        </g>
        
        <!-- 数据流动效果 -->
        <text x="185" y="90" fill="#9D65FF" font-size="10" class="comic-flash">📊 → 📊 → 📊</text>
    </g>
    
    <!-- ===== 分镜框 4: CHAERYEONG ===== -->
    <g transform="translate(890, 120)" class="comic-bounce">
        <rect x="-10" y="-10" width="200" height="160" rx="8" fill="#FFF" stroke="#333" stroke-width="4"/>
        <rect x="0" y="0" width="180" height="120" rx="6" fill="url(#stickyYellow)" filter="url(#softShadow)"/>
        <polygon points="180,0 180,15 165,0" fill="#FFE082"/>
        
        <!-- Q版设计师 -->
        <g transform="translate(90, 45)">
            <circle r="30" fill="#FFF9C4" stroke="#333" stroke-width="3"/>
            <!-- 活泼表情 -->
            <ellipse cx="-8" cy="-5" rx="8" ry="10" fill="#FFF"/>
            <ellipse cx="8" cy="-5" rx="8" ry="10" fill="#FFF"/>
            <circle cx="-8" cy="-5" r="5" fill="#333"/>
            <circle cx="8" cy="-5" r="5" fill="#333"/>
            <!-- 大笑 -->
            <path d="M -12 8 Q 0 18 12 8" stroke="#333" stroke-width="2" fill="none"/>
            <!-- 发带 -->
            <rect x="-28" y="-28" width="56" height="8" rx="4" fill="#FFD166" stroke="#333" stroke-width="1"/>
        </g>
        
        <text x="90" y="105" text-anchor="middle" fill="#FFD166" font-size="16" font-weight="bold">💛 CHAERYEONG</text>
        
        <!-- 对白框 -->
        <g transform="translate(140, -50)">
            <ellipse rx="50" ry="30" fill="#FFF" stroke="#333" stroke-width="2"/>
            <polygon points="-5,30 5,40 15,30" fill="#FFF" stroke="#333" stroke-width="2"/>
            <text y="-8" text-anchor="middle" fill="#333" font-size="10" font-weight="bold">"UI配色</text>
            <text y="5" text-anchor="middle" fill="#333" font-size="10" font-weight="bold">這次用霓虹風格!"</text>
        </g>
        
        <!-- 设计元素 -->
        <rect x="175" y="30" width="25" height="25" rx="3" fill="#FFD166" opacity="0.6"/>
        <rect x="175" y="60" width="25" height="25" rx="3" fill="#FF6B9D" opacity="0.6"/>
    </g>
    
    <!-- ===== 分镜框 5: YUNA (主角!) ===== -->
    <g transform="translate(450, 320)" class="comic-float">
        <!-- 特大漫画框 -->
        <rect x="-20" y="-20" width="260" height="200" rx="10" fill="#FFF" stroke="#FF6B8B" stroke-width="5"/>
        
        <!-- Yuna 大便利贴 -->
        <rect x="0" y="0" width="220" height="160" rx="8" fill="url(#stickyPink)" filter="url(#softShadow)"/>
        
        <!-- 大 Q版 Yuna -->
        <g transform="translate(110, 55)">
            <circle r="40" fill="#FCE4EC" stroke="#FF6B8B" stroke-width="3"/>
            <!-- 星星眼 -->
            <ellipse cx="-15" cy="-8" rx="12" ry="14" fill="#FFF"/>
            <ellipse cx="15" cy="-8" rx="12" ry="14" fill="#FFF"/>
            <text x="-15" y="-5" text-anchor="middle" fill="#FF6B8B" font-size="16">✦</text>
            <text x="15" y="-5" text-anchor="middle" fill="#FF6B8B" font-size="16">✦</text>
            <!-- 开心表情 -->
            <path d="M -18 15 Q 0 28 18 15" stroke="#333" stroke-width="3" fill="#FCE4EC"/>
            <!-- 画笔和画板 -->
            <rect x="35" y="-15" width="30" height="8" rx="2" fill="#FF6B8B"/>
            <polygon points="65,-15 72,-11 65,-7" fill="#333"/>
            <rect x="-65" y="-25" width="35" height="28" rx="3" fill="#FFF" stroke="#FF6B8B" stroke-width="2"/>
            <circle cx="-47" cy="-11" r="8" fill="#FFE082"/>
        </g>
        
        <text x="110" y="125" text-anchor="middle" fill="#FF6B8B" font-size="22" font-weight="bold">💗 YUNA</text>
        <text x="110" y="145" text-anchor="middle" fill="#888" font-size="12">可視化引擎</text>
        
        <!-- Yuna 主角对白框 (超大爆炸框) -->
        <g transform="translate(110, -90)">
            <path d="M -70,-50 L -60,-65 L -50,-50 L -40,-70 L -30,-50 L -20,-65 L -10,-50 L 0,-60 L 10,-50 L 20,-65 L 30,-50 L 40,-70 L 50,-50 L 60,-65 L 70,-50 L 70,20 Q 70,45 50,45 L -50,45 Q -70,45 -70,20 Z" 
                  fill="#FFF" stroke="#FF6B8B" stroke-width="3"/>
            <text y="-25" text-anchor="middle" fill="#FF6B8B" font-size="14" font-weight="bold">
                "等等！這架構圖
            </text>
            <text y="-5" text-anchor="middle" fill="#FF6B8B" font-size="14" font-weight="bold">
                我來改成漫畫風格！"
            </text>
            <text y="20" text-anchor="middle" fill="#333" font-size="11">
                ✨ Designed by YUNA ✨
            </text>
        </g>
        
        <!-- 漫画速度线 -->
        <g stroke="#FF6B8B" stroke-width="2" opacity="0.6" stroke-dasharray="5,3">
            <line x1="220" y1="80" x2="260" y2="80"/>
            <line x1="220" y1="90" x2="255" y2="90"/>
            <line x1="220" y1="100" x2="260" y2="100"/>
            <line x1="220" y1="110" x2="255" y2="110"/>
        </g>
    </g>
    
    <!-- ===== 分镜框 6: RYUJIN ===== -->
    <g transform="translate(820, 320)" class="comic-wiggle">
        <rect x="-15" y="-15" width="230" height="200" rx="8" fill="#FFF" stroke="#333" stroke-width="4"/>
        <rect x="0" y="0" width="200" height="160" rx="6" fill="url(#stickyGreen)" filter="url(#softShadow)"/>
        
        <!-- Q版 QA -->
        <g transform="translate(100, 55)">
            <circle r="38" fill="#C8E6C9" stroke="#333" stroke-width="3"/>
            <!-- 酷酷表情 -->
            <ellipse cx="-12" cy="-10" rx="10" ry="12" fill="#FFF"/>
            <ellipse cx="12" cy="-10" rx="10" ry="12" fill="#FFF"/>
            <circle cx="-12" cy="-10" r="5" fill="#333"/>
            <circle cx="12" cy="-10" r="5" fill="#333"/>
            <!-- 冷酷表情线 -->
            <line x1="-15" y1="12" x2="15" y2="12" stroke="#333" stroke-width="2.5"/>
            <!-- QA帽 -->
            <rect x="-28" y="-42" width="56" height="14" rx="3" fill="#06D6A0" stroke="#333" stroke-width="2"/>
            <text x="0" y="-35" text-anchor="middle" fill="#FFF" font-size="9" font-weight="bold">QA</text>
        </g>
        
        <text x="100" y="125" text-anchor="middle" fill="#06D6A0" font-size="20" font-weight="bold">💚 RYUJIN</text>
        
        <!-- 对白框 -->
        <g transform="translate(160, -70)">
            <ellipse rx="55" ry="35" fill="#FFF" stroke="#333" stroke-width="2"/>
            <polygon points="-5,35 5,48 18,35" fill="#FFF" stroke="#333" stroke-width="2"/>
            <text y="-15" text-anchor="middle" fill="#06D6A0" font-size="11" font-weight="bold">
                "測試全通過！
            </text>
            <text y="0" text-anchor="middle" fill="#06D6A0" font-size="11" font-weight="bold">
                PASS ✓ PASS ✓" 
            </text>
            <text y="15" text-anchor="middle" fill="#333" font-size="9">
                "沒bug才交貨！"
            </text>
        </g>
        
        <!-- PASS 徽章 -->
        <g transform="translate(30, 175)">
            <rect width="60" height="22" rx="11" fill="#06D6A0"/>
            <text x="30" y="15" text-anchor="middle" fill="#FFF" font-size="11" font-weight="bold">PASS ✓</text>
        </g>
    </g>
    
    <!-- ===== 连接线和流程指示 ===== -->
    <g stroke-width="3" fill="none" opacity="0.7">
        <!-- 主流程线 -->
        <path d="M 200 200 Q 280 150 350 200" stroke="#FF6B9D" stroke-dasharray="12,6"/>
        <path d="M 450 200 L 550 200 Q 600 150 620 200" stroke="#4ECDC4" stroke-dasharray="12,6"/>
        <path d="M 720 200 Q 800 150 890 200" stroke="#9D65FF" stroke-dasharray="12,6"/>
        
        <!-- Yuna 连接 -->
        <path d="M 350 280 Q 400 300 450 320" stroke="#FFD166" stroke-width="2" stroke-dasharray="8,4"/>
        <path d="M 720 280 Q 700 300 670 320" stroke="#06D6A0" stroke-width="2" stroke-dasharray="8,4"/>
        
        <!-- QA 反馈线 -->
        <path d="M 920 400 Q 500 450 200 280" stroke="#06D6A0" stroke-width="2" stroke-dasharray="5,5" opacity="0.4"/>
    </g>
    
    <!-- 流程标签 (漫画风格) -->
    <g font-size="11" font-weight="bold">
        <g transform="translate(280, 180)">
            <rect x="-30" y="-12" width="60" height="24" rx="12" fill="#FFE082"/>
            <text text-anchor="middle" y="5" fill="#333">數據</text>
        </g>
        <g transform="translate(590, 180)">
            <rect x="-30" y="-12" width="60" height="24" rx="12" fill="#E1BEE7"/>
            <text text-anchor="middle" y="5" fill="#333">API</text>
        </g>
        <g transform="translate(820, 180)">
            <rect x="-35" y="-12" width="70" height="24" rx="12" fill="#C8E6C9"/>
            <text text-anchor="middle" y="5" fill="#333">UI組件</text>
        </g>
    </g>
    
    <!-- ===== Yuna 结尾创意对白 ===== -->
    <g transform="translate(100, 550)">
        <rect x="0" y="0" width="1000" height="80" rx="10" fill="#FCE4EC" stroke="#FF6B8B" stroke-width="2" opacity="0.8"/>
        <text x="500" y="30" text-anchor="middle" fill="#FF6B8B" font-size="16" font-weight="bold" font-style="italic">
            "嘿嘿～這就是ITZY團隊的協作方式！每個人都很專業，但用漫畫表達就更有趣了～ ✨"
        </text>
        <text x="500" y="55" text-anchor="middle" fill="#888" font-size="12">
            — YUNA 可視化引擎創意對白 —  "流程圖太嚴肅？那就畫成漫畫吧！"
        </text>
        <!-- Yuna 签名 -->
        <g transform="translate(950, 50)">
            <circle r="20" fill="#FCE4EC" stroke="#FF6B8B" stroke-width="2"/>
            <text y="5" text-anchor="middle" fill="#FF6B8B" font-size="10">💗</text>
        </g>
    </g>
    
    <!-- 装饰漫画元素 -->
    <g opacity="0.6">
        <!-- 星星 -->
        <text x="30" y="80" fill="#FFD166" font-size="20">★</text>
        <text x="1150" y="100" fill="#FF6B9D" font-size="18">✿</text>
        <text x="40" y="600" fill="#06D6A0" font-size="16">✓</text>
        <text x="1100" y="620" fill="#9D65FF" font-size="18">◆</text>
        <!-- 闪电 -->
        <text x="280" y="280" fill="#FF6B9D" font-size="14" class="comic-flash">⚡</text>
        <text x="800" y="280" fill="#06D6A0" font-size="14" class="comic-flash">⚡</text>
    </g>
    
    <!-- Yuna 大签名 -->
    <g transform="translate(1050, 650)">
        <text fill="#FF6B8B" font-size="14" font-style="italic" opacity="0.8">✨ YUNA MANGA STYLE</text>
        <text y="18" fill="#888" font-size="10" opacity="0.6">"漫畫比流程圖好看多了！"</text>
    </g>
</svg>